<svg xmlns="http://www.w3.org/2000/svg" viewBox="0 0 300 260" role="img"><rect width="300" height="260" rx="24" fill="#f9e8bb"/><circle cx="23" cy="-51" r="3" fill="#ffeef0" opacity=".7"/><circle cx="30" cy="-61" r="4" fill="#ffeef0" opacity=".7"/><circle cx="-46" cy="-66" r="5" fill="#ffeef0" opacity=".7"/><circle cx="-4" cy="-68" r="3" fill="#ffeef0" opacity=".7"/><circle cx="17" cy="-17" r="4" fill="#ffeef0" opacity=".7"/><path d="M24 229q126-20 252 0" fill="none" stroke="#714533" stroke-width="3" opacity=".22"/><ellipse cx="150" cy="196" rx="99" ry="35" fill="#fff9ed" stroke="#714533" stroke-width="5"/><path d="M57 157q12 60 93 60t93-60" fill="#f9e8bb" stroke="#714533" stroke-width="5"/><ellipse cx="150" cy="157" rx="93" ry="42" fill="#ffeef0"/><path d="M92 149q19-33 43 0t44 0t35 0" fill="none" stroke="#e8a64d" stroke-width="8" stroke-linecap="round"/><path d="M107 129q-9-22 1-39M152 125q-8-25 3-46M190 133q-3-23 10-39" stroke="#714533" stroke-width="5" stroke-linecap="round" opacity=".65"/><path d="M26 33q15-15 30 0M244 40q14-14 29 0" fill="none" stroke="#714533" stroke-width="4" stroke-linecap="round" opacity=".35"/></svg>